<?xml version="1.0" encoding="UTF-8"?>
<svg xmlns="http://www.w3.org/2000/svg" xmlns:xlink="http://www.w3.org/1999/xlink" width="32px" height="32px" viewBox="0 0 32 32" version="1.1">
<g id="surface1">
<path style=" stroke:none;fill-rule:evenodd;fill:rgb(17.647059%,17.647059%,25.490196%);fill-opacity:1;" d="M 16 0 C 7.164062 0 0 7.164062 0 16 C 0 24.839844 7.164062 32 16 32 C 24.835938 32 32 24.839844 32 16 C 32 7.164062 24.835938 0 16 0 "/>
<path style=" stroke:none;fill-rule:evenodd;fill:rgb(38.823529%,78.823529%,87.843137%);fill-opacity:1;" d="M 11.917969 9.132812 L 14.644531 9.132812 L 16.007812 11.492188 L 14.644531 13.855469 L 11.917969 13.855469 L 10.554688 11.492188 Z M 14.644531 25.648438 L 11.917969 25.648438 L 10.554688 23.285156 L 11.917969 20.925781 L 14.644531 20.925781 L 16.007812 23.285156 Z M 14.644531 19.75 L 11.917969 19.75 L 10.554688 17.386719 L 11.917969 15.027344 L 14.644531 15.027344 L 16.007812 17.386719 Z M 19.917969 16.804688 L 17.191406 16.804688 L 15.828125 14.441406 L 17.191406 12.085938 L 19.917969 12.085938 L 21.28125 14.441406 Z M 19.917969 10.910156 L 17.191406 10.910156 L 15.828125 8.546875 L 17.191406 6.1875 L 19.917969 6.1875 L 21.28125 8.546875 Z M 19.917969 10.910156 "/>
</g>
</svg>
