<?xml version="1.0" encoding="utf-8"?>
<!-- Generator: Adobe Illustrator 27.2.0, SVG Export Plug-In . SVG Version: 6.00 Build 0)  -->
<svg version="1.0" id="Слой_1" xmlns="http://www.w3.org/2000/svg" xmlns:xlink="http://www.w3.org/1999/xlink" x="0px" y="0px"
	 viewBox="0 0 90 90" style="enable-background:new 0 0 90 90;" xml:space="preserve">
<style type="text/css">
	.st0{fill:#F47E3D;}
	.st1{fill:none;stroke:#2E2E41;stroke-width:2;}
	.st2{fill-rule:evenodd;clip-rule:evenodd;fill:#FFFFFF;}
</style>
<g>
	<rect class="st0" width="90" height="90"/>
</g>
<g>
	<g>
		<path class="st1" d="M56.95,64.15l3.69,1.56l1.88-3.3L54.6,39.6"/>
		<path class="st2" d="M40.24,20.55c-1.76,1.31,0.48,5.79,1.88,8.21c2.8-0.45,5.66-0.47,8.47-0.08c1.4-2.44,3.58-6.84,1.83-8.13
			C52.42,20.55,47.26,16.98,40.24,20.55"/>
		<path class="st1" d="M40.24,20.55c-1.76,1.31,0.48,5.79,1.88,8.21c2.8-0.45,5.66-0.47,8.47-0.08c1.4-2.44,3.58-6.84,1.83-8.13
			C52.42,20.55,47.26,16.98,40.24,20.55z"/>
		<path class="st2" d="M43.04,32.88l-3.55,37.13l7.06,7.02l6.63-7.02l-3.56-37.21"/>
		<path class="st1" d="M43.04,32.88l-3.55,37.13l7.06,7.02l6.63-7.02l-3.56-37.21"/>
	</g>
</g>
</svg>
