<?xml version="1.0" encoding="utf-8"?>
<!-- Generator: Adobe Illustrator 27.2.0, SVG Export Plug-In . SVG Version: 6.00 Build 0)  -->
<svg version="1.0" id="Слой_1" xmlns="http://www.w3.org/2000/svg" xmlns:xlink="http://www.w3.org/1999/xlink" x="0px" y="0px"
	 viewBox="0 0 90 90" style="enable-background:new 0 0 90 90;" xml:space="preserve">
<style type="text/css">
	.st0{fill:#D04B9B;}
	.st1{fill-rule:evenodd;clip-rule:evenodd;fill:#2E2D42;}
	.st2{fill-rule:evenodd;clip-rule:evenodd;fill:#FEFEFE;}
</style>
<g>
	<rect class="st0" width="90" height="90"/>
</g>
<g>
	<g>
		<path class="st1" d="M43.27,35.85h0.49l0.48-0.41l0.48,0.41h1.23l0.48-0.41l0.48,0.41h0.5l-0.98,7h-2.16
			C44.25,42.85,43.27,35.85,43.27,35.85z M45.33,22.48c4.85,0,8.8,3.95,8.8,8.8c0,0.04-0.14,4.39-3.73,9
			c-0.47,0.63-0.8,1.49-0.97,2.57h-0.92l1.35-9.66l-1.59-0.22l-0.1-0.12l-0.11,0.09l-0.18-0.03l-0.03,0.21l-0.19,0.16l-0.51-0.44
			h-1.31l-0.51,0.44l-0.51-0.44h-1.31L43,33.29l-0.18-0.16l-0.03-0.21l-0.19,0.03l-0.11-0.09l-0.1,0.12l-1.6,0.22l1.35,9.66h-0.93
			c-0.17-1.08-0.49-1.94-0.97-2.58c-3.58-4.6-3.72-8.95-3.72-8.99C36.54,26.43,40.48,22.48,45.33,22.48L45.33,22.48z M25.91,31.85
			h8.63c0.01,0.23,0.07,0.93,0.28,1.94c0.4,1.87,1.36,4.81,3.7,7.81c0.34,0.45,0.57,1.29,0.64,2.34l0.06,0.9h0.28l0,0h2v1h-2v2h11
			v-2h-7v-1h7h0h0.26l0.07-0.9c0.08-1.06,0.31-1.89,0.65-2.34c2.34-3.01,3.31-5.95,3.71-7.83c0.22-1.01,0.27-1.71,0.28-1.94l8.64,0
			c0.22,0,0.4,0.18,0.4,0.4v24.6h-39v-24.6C25.5,32.03,25.68,31.85,25.91,31.85L25.91,31.85z M70.5,59.9
			c-0.62,0.42-1.57,0.95-2.19,0.95H21.69c-0.6,0-1.53-0.5-2.19-0.95v-1.05h51C70.5,58.85,70.5,59.9,70.5,59.9z M66.5,32.22
			c0-1.31-1.05-2.37-2.34-2.37h-8.39c-0.88-4.94-5.14-8.7-10.27-8.7s-9.39,3.76-10.27,8.7h-8.39c-1.29,0-2.34,1.06-2.34,2.37v24.63
			l-7,0v4.09l0.4,0.3c0.21,0.16,2.14,1.6,3.77,1.6h46.66c1.63,0,3.56-1.44,3.77-1.6l0.4-0.3v-4.09l-6,0L66.5,32.22L66.5,32.22z"/>
		<path class="st2" d="M41.5,50.85h7v-2h-7C41.5,48.85,41.5,50.85,41.5,50.85z M27.5,54.85h35v-21h-7.17
			c-0.41,1.86-1.42,4.79-3.83,7.78c-0.35,0.44-0.59,1.27-0.67,2.33l-0.07,0.89H50.5l0,0h-7v1h7v2h-11v-2h2v-1h-2l0,0h-0.28
			l-0.06-0.9c-0.07-1.05-0.3-1.88-0.64-2.33c-2.32-2.99-3.28-5.91-3.68-7.77H27.5C27.5,33.85,27.5,54.85,27.5,54.85z"/>
		<path class="st1" d="M41.5,50.85h7v-2h-7V50.85z"/>
	</g>
</g>
</svg>
