<?xml version="1.0" encoding="utf-8"?>
<!-- Generator: Adobe Illustrator 27.2.0, SVG Export Plug-In . SVG Version: 6.00 Build 0)  -->
<svg version="1.1" id="Слой_1" xmlns="http://www.w3.org/2000/svg" xmlns:xlink="http://www.w3.org/1999/xlink" x="0px" y="0px"
	 viewBox="0 0 90 90" style="enable-background:new 0 0 90 90;" xml:space="preserve">
<style type="text/css">
	.st0{fill:#63C9E0;}
	.st1{fill-rule:evenodd;clip-rule:evenodd;fill:#2E2D42;}
	.st2{fill-rule:evenodd;clip-rule:evenodd;fill:#FEFEFE;}
</style>
<g>
	<rect class="st0" width="90" height="90"/>
</g>
<g>
	<g>
		<path class="st1" d="M49.6,70.9c0,0.2,0.1,0.4,0.1,0.6h-8.8c0-0.2,0.1-0.4,0.2-0.6c0.2-0.7,0.1-1.8,0.1-2.8c0-0.2,0-0.4,0-0.6h8.3
			l0,0.6C49.5,69.1,49.5,70.2,49.6,70.9L49.6,70.9z M67,65.5H23.4c-0.2,0.2-0.5-0.2,0.1-0.4v-3.6h44v3.6
			C67.2,65.4,67.1,65.7,67,65.5z M69.5,60.5V34.1c-0.3-1.2-2.6-2.6-2.6-2.6h-6.4v-2h-2v28h2v-24h6.7c0.2,0,0.3,0.1,0.3,0.3v25.7h-44
			V34.1c0,0-0.5-0.3-0.4-0.6h6.4v24h2v-33h21v-2h-23v10h-6.4c0,0-2.2,0.3-2.6,1.6v28.4h1v2.4c0,1.3,1.1,2.6,2.4,2.6h14.6l0,0.6
			c0,0.4,0,0.8,0,1.2c0,0.5,0,0.9-0.1,1.2c-0.1,0.3-0.1,0.4-0.1,0.5c0,0-0.1,0.1-0.2,0.1l-0.1,0c-0.2,0.1-0.5,0.2-0.7,0.4h-0.9v2
			h15.3c0,0,0,0,0,0l0,0h1.7v-2h-1.3c-0.2-0.1-0.5-0.2-0.8-0.4c-0.1,0-0.1-0.1-0.2-0.1c0-0.2-0.1-0.3-0.1-0.5c0-0.3-0.1-0.7-0.1-1.1
			c0-0.4,0-0.9,0-1.2c0-0.2,0-0.4,0-0.6h15.2c1.3,0,2.1-1.3,2.1-2.5v-4.5h0.7H69.5z"/>
		<path class="st2" d="M25.5,57.5h4v-21h-4V57.5z M60.5,57.5h4v-21h-4V57.5z M52.5,30.5h7.6l-7.6-7.6v1.9V30.5z"/>
		<path class="st1" d="M54.5,33.5v-2h-14v2H54.5z M40.5,36.5h14v-2h-14V36.5z M35.1,33.6L34,35.3l2.2,1.4l2.7-3.4l-0.6-0.5l-0.9-0.7
			l-0.6,0.7l-1,1.3L35.1,33.6z M40.5,42.5h14v-2h-14V42.5z M40.5,46.5h14v-2h-14V46.5z M38.9,42.5l-1.5-1.2l-1.6,2l-0.7-0.4L34,44.5
			l2.2,1.4L38.9,42.5z M40.5,52.5h14v-2h-14V52.5z M40.5,55.5h14v-2h-14V55.5z M38.9,51.6l-1.5-1.2l-1.6,2L35.1,52L34,53.6l2.2,1.4
			L38.9,51.6z"/>
	</g>
</g>
</svg>
